<?xml version="1.0" encoding="UTF-8"?>
<svg id="Template_Artwork" xmlns="http://www.w3.org/2000/svg" viewBox="0 0 597 50">
  <defs>
    <style>
      .cls-1 {
        fill: #ba1f40;
      }

      .cls-2 {
        fill: #606061;
      }

      .cls-3 {
        fill: #fff;
      }

      .cls-4 {
        fill: #bb0e3d;
      }
    </style>
  </defs>
  <g id="NCI">
    <path class="cls-4" d="M84.47,4.83h1.8v8.07h-1.8l-3.85-5.06v5.06h-1.8V4.83h1.69l3.96,5.2v-5.2Z"/>
    <path class="cls-4" d="M94.01,12.9l-.75-1.74h-3.38l-.75,1.74h-1.92l3.49-8.07h1.74l3.49,8.07h-1.92ZM91.57,7.23l-1.02,2.34h2.02l-1.01-2.34Z"/>
    <path class="cls-4" d="M99.69,6.39v6.51h-1.8v-6.51h-2.29v-1.56h6.37v1.56h-2.29Z"/>
    <path class="cls-4" d="M103.29,4.83h1.8v8.07h-1.8V4.83Z"/>
    <path class="cls-4" d="M113.87,11.79c-.82.8-1.82,1.2-3.01,1.2s-2.2-.4-3.01-1.2c-.82-.8-1.22-1.79-1.22-2.97s.41-2.18,1.22-2.97c.82-.8,1.82-1.2,3.01-1.2s2.2.4,3.01,1.2c.82.8,1.22,1.79,1.22,2.97s-.41,2.18-1.22,2.97ZM113.26,8.82c0-.72-.23-1.33-.69-1.84-.46-.51-1.03-.76-1.7-.76s-1.24.25-1.7.76-.69,1.12-.69,1.84.23,1.33.69,1.84c.46.5,1.03.76,1.7.76s1.24-.25,1.7-.76c.46-.5.69-1.12.69-1.84Z"/>
    <path class="cls-4" d="M122.27,4.83h1.8v8.07h-1.8l-3.85-5.06v5.06h-1.8V4.83h1.69l3.96,5.2v-5.2Z"/>
    <path class="cls-4" d="M131.81,12.9l-.75-1.74h-3.38l-.75,1.74h-1.92l3.49-8.07h1.74l3.49,8.07h-1.92ZM129.37,7.23l-1.02,2.34h2.02l-1-2.34Z"/>
    <path class="cls-4" d="M134.66,12.9V4.83h1.8v6.47h3.44v1.61h-5.24Z"/>
    <path class="cls-4" d="M147.97,11.31c.88,0,1.61-.35,2.17-1.05l1.15,1.19c-.92,1.03-2,1.55-3.24,1.55s-2.27-.39-3.07-1.18c-.8-.79-1.21-1.78-1.21-2.97s.41-2.2,1.23-3c.82-.8,1.82-1.2,3.01-1.2,1.32,0,2.43.5,3.33,1.51l-1.12,1.27c-.57-.71-1.28-1.06-2.12-1.06-.68,0-1.26.22-1.74.66-.48.44-.72,1.04-.72,1.79s.23,1.35.68,1.81c.45.45,1,.68,1.65.68Z"/>
    <path class="cls-4" d="M158.41,12.9l-.75-1.74h-3.38l-.75,1.74h-1.92l3.49-8.07h1.74l3.49,8.07h-1.92ZM155.98,7.23l-1.02,2.34h2.02l-1-2.34Z"/>
    <path class="cls-4" d="M166.91,4.83h1.8v8.07h-1.8l-3.85-5.06v5.06h-1.8V4.83h1.69l3.96,5.2v-5.2Z"/>
    <path class="cls-4" d="M174.41,11.31c.89,0,1.61-.35,2.17-1.05l1.16,1.19c-.92,1.03-2,1.55-3.24,1.55s-2.27-.39-3.07-1.18c-.8-.79-1.21-1.78-1.21-2.97s.41-2.2,1.23-3c.82-.8,1.82-1.2,3.01-1.2,1.32,0,2.43.5,3.33,1.51l-1.12,1.27c-.57-.71-1.28-1.06-2.12-1.06-.68,0-1.26.22-1.74.66-.48.44-.72,1.04-.72,1.79s.23,1.35.68,1.81c.45.45,1.01.68,1.65.68Z"/>
    <path class="cls-4" d="M184.98,4.83v1.61h-4.02v1.66h3.61v1.54h-3.61v1.67h4.15v1.59h-5.95V4.83h5.82Z"/>
    <path class="cls-4" d="M193.26,7.51c0,1.29-.51,2.13-1.54,2.51l2.04,2.89h-2.22l-1.79-2.58h-1.25v2.58h-1.8V4.83h3.06c1.25,0,2.15.21,2.69.64s.8,1.1.8,2.04ZM191.08,8.47c.22-.2.33-.52.33-.95s-.11-.73-.35-.9-.64-.24-1.21-.24h-1.35v2.39h1.32c.62,0,1.04-.1,1.26-.3Z"/>
    <path class="cls-4" d="M198.15,4.83h1.8v8.07h-1.8V4.83Z"/>
    <path class="cls-4" d="M207.59,4.83h1.8v8.07h-1.8l-3.85-5.06v5.06h-1.8V4.83h1.69l3.96,5.2v-5.2Z"/>
    <path class="cls-4" d="M213.26,6.44c-.17.14-.26.33-.26.57s.11.42.32.56c.21.14.7.3,1.47.49s1.36.47,1.79.85c.42.38.64.93.64,1.65s-.27,1.31-.81,1.76-1.26.68-2.14.68c-1.28,0-2.43-.47-3.45-1.42l1.07-1.32c.87.76,1.67,1.14,2.41,1.14.33,0,.59-.07.78-.21.19-.14.28-.33.28-.58s-.1-.44-.3-.58-.6-.29-1.19-.43c-.94-.22-1.63-.51-2.06-.87s-.65-.92-.65-1.69.28-1.36.83-1.77c.55-.42,1.24-.62,2.06-.62.54,0,1.08.09,1.62.28.54.18,1.01.45,1.41.79l-.91,1.32c-.7-.53-1.42-.8-2.17-.8-.3,0-.54.07-.71.21Z"/>
    <path class="cls-4" d="M222.09,6.39v6.51h-1.8v-6.51h-2.29v-1.56h6.37v1.56h-2.29Z"/>
    <path class="cls-4" d="M225.7,4.83h1.8v8.07h-1.8V4.83Z"/>
    <path class="cls-4" d="M232.9,6.39v6.51h-1.8v-6.51h-2.29v-1.56h6.37v1.56h-2.29Z"/>
    <path class="cls-4" d="M238.64,10.82c.3.37.71.56,1.21.56s.91-.19,1.21-.56c.3-.37.44-.88.44-1.53v-4.46h1.8v4.52c0,1.17-.32,2.07-.97,2.7-.65.63-1.47.94-2.48.94s-1.84-.32-2.49-.95-.98-1.53-.98-2.69v-4.52h1.8v4.46c0,.65.15,1.16.45,1.53Z"/>
    <path class="cls-4" d="M248.6,6.39v6.51h-1.8v-6.51h-2.29v-1.56h6.37v1.56h-2.29Z"/>
    <path class="cls-4" d="M258.02,4.83v1.61h-4.02v1.66h3.61v1.54h-3.61v1.67h4.15v1.59h-5.95V4.83h5.82Z"/>
  </g>
  <g>
    <path class="cls-1" d="M57.7,5.53c-.92-1.32-2.37-2.24-3.95-2.24h-3.55l11.97,21.18-11.97,21.18h3.55c1.71,0,3.16-.92,3.95-2.24l10.53-18.95-10.53-18.95Z"/>
    <path class="cls-2" d="M58.88,24.48L47.17,3.29H4.67C2.04,3.29.07,5.4.07,7.9v33.29c0,2.5,1.97,4.61,4.61,4.61h42.5l11.71-21.32Z"/>
    <rect class="cls-3" x="25.2" y="15.14" width="3.16" height="18.82"/>
    <polygon class="cls-3" points="18.88 15.14 18.88 28.82 10.2 15.14 7.17 15.14 7.17 33.95 10.2 33.95 10.2 20.14 18.88 33.95 22.04 33.95 22.04 15.14 18.88 15.14"/>
    <polygon class="cls-3" points="43.22 15.14 43.22 22.9 34.54 22.9 34.54 15.14 31.38 15.14 31.38 33.95 34.54 33.95 34.54 26.06 43.22 26.06 43.22 33.95 46.38 33.95 46.38 15.14 43.22 15.14"/>
  </g>
  <g>
    <path class="cls-2" d="M78.16,23.95c0-3.01,2.31-5.16,5.42-5.16,1.72,0,3.16.63,4.1,1.77l-1.48,1.37c-.67-.77-1.51-1.17-2.51-1.17-1.87,0-3.19,1.31-3.19,3.19s1.33,3.19,3.19,3.19c1,0,1.84-.4,2.51-1.18l1.48,1.37c-.94,1.15-2.38,1.78-4.12,1.78-3.09,0-5.4-2.15-5.4-5.16Z"/>
    <path class="cls-2" d="M96.91,24.55v4.39h-2.22v-4.05c0-1.24-.57-1.81-1.55-1.81-1.07,0-1.84.66-1.84,2.07v3.79h-2.22v-10.57h2.22v3.71c.6-.6,1.45-.91,2.44-.91,1.81,0,3.18,1.05,3.18,3.39Z"/>
    <path class="cls-2" d="M98.65,18.96c0-.7.56-1.24,1.38-1.24s1.38.51,1.38,1.2c0,.74-.56,1.28-1.38,1.28s-1.38-.54-1.38-1.24ZM98.92,21.27h2.22v7.67h-2.22v-7.67Z"/>
    <path class="cls-2" d="M103.21,18.37h2.22v10.57h-2.22v-10.57Z"/>
    <path class="cls-2" d="M115.31,18.37v10.57h-2.12v-.88c-.56.67-1.37,1-2.39,1-2.17,0-3.83-1.54-3.83-3.95s1.67-3.95,3.83-3.95c.94,0,1.74.3,2.29.93v-3.72h2.22ZM113.13,25.11c0-1.33-.86-2.12-1.95-2.12s-1.97.8-1.97,2.12.86,2.12,1.97,2.12,1.95-.8,1.95-2.12Z"/>
    <path class="cls-2" d="M125.2,24.55v4.39h-2.22v-4.05c0-1.24-.57-1.81-1.55-1.81-1.07,0-1.84.66-1.84,2.07v3.79h-2.22v-10.57h2.22v3.71c.6-.6,1.45-.91,2.44-.91,1.81,0,3.18,1.05,3.18,3.39Z"/>
    <path class="cls-2" d="M126.72,25.11c0-2.31,1.78-3.95,4.22-3.95s4.2,1.64,4.2,3.95-1.77,3.95-4.2,3.95-4.22-1.64-4.22-3.95ZM132.89,25.11c0-1.33-.84-2.12-1.95-2.12s-1.97.8-1.97,2.12.86,2.12,1.97,2.12,1.95-.8,1.95-2.12Z"/>
    <path class="cls-2" d="M136.06,25.11c0-2.31,1.78-3.95,4.22-3.95s4.2,1.64,4.2,3.95-1.77,3.95-4.2,3.95-4.22-1.64-4.22-3.95ZM142.23,25.11c0-1.33-.84-2.12-1.95-2.12s-1.97.8-1.97,2.12.85,2.12,1.97,2.12,1.95-.8,1.95-2.12Z"/>
    <path class="cls-2" d="M153.77,18.37v10.57h-2.12v-.88c-.56.67-1.37,1-2.39,1-2.17,0-3.83-1.54-3.83-3.95s1.67-3.95,3.83-3.95c.94,0,1.74.3,2.29.93v-3.72h2.22ZM151.59,25.11c0-1.33-.86-2.12-1.95-2.12s-1.97.8-1.97,2.12.86,2.12,1.97,2.12,1.95-.8,1.95-2.12Z"/>
    <path class="cls-2" d="M159.38,23.95c0-3.01,2.31-5.16,5.42-5.16,1.72,0,3.16.63,4.1,1.77l-1.48,1.37c-.67-.77-1.51-1.17-2.51-1.17-1.87,0-3.19,1.31-3.19,3.19s1.33,3.19,3.19,3.19c1,0,1.84-.4,2.51-1.18l1.48,1.37c-.94,1.15-2.38,1.78-4.12,1.78-3.09,0-5.4-2.15-5.4-5.16Z"/>
    <path class="cls-2" d="M177.02,24.56v4.38h-2.08v-.96c-.41.7-1.21,1.07-2.34,1.07-1.8,0-2.87-1-2.87-2.32s.96-2.29,3.29-2.29h1.77c0-.96-.57-1.51-1.77-1.51-.81,0-1.65.27-2.21.71l-.8-1.55c.84-.6,2.08-.93,3.31-.93,2.34,0,3.69,1.08,3.69,3.41ZM174.8,26.52v-.78h-1.53c-1.04,0-1.37.38-1.37.9,0,.56.47.93,1.25.93.74,0,1.38-.34,1.64-1.04Z"/>
    <path class="cls-2" d="M186.87,24.55v4.39h-2.22v-4.05c0-1.24-.57-1.81-1.55-1.81-1.07,0-1.84.66-1.84,2.07v3.79h-2.22v-7.67h2.12v.9c.6-.66,1.5-1.01,2.54-1.01,1.81,0,3.18,1.05,3.18,3.39Z"/>
    <path class="cls-2" d="M188.39,25.11c0-2.31,1.78-3.95,4.28-3.95,1.61,0,2.88.7,3.43,1.95l-1.72.93c-.41-.73-1.03-1.05-1.72-1.05-1.13,0-2.01.78-2.01,2.12s.88,2.12,2.01,2.12c.7,0,1.31-.31,1.72-1.05l1.72.94c-.56,1.23-1.82,1.94-3.43,1.94-2.49,0-4.28-1.64-4.28-3.95Z"/>
    <path class="cls-2" d="M204.75,25.73h-5.8c.21.95,1.03,1.54,2.2,1.54.81,0,1.4-.24,1.92-.74l1.18,1.28c-.71.81-1.78,1.24-3.16,1.24-2.65,0-4.38-1.67-4.38-3.95s1.75-3.95,4.09-3.95,3.99,1.51,3.99,3.98c0,.17-.03.41-.04.6ZM198.92,24.44h3.78c-.16-.97-.88-1.6-1.88-1.6s-1.74.61-1.9,1.6Z"/>
    <path class="cls-2" d="M211.04,21.16v2.05c-.19-.01-.33-.03-.5-.03-1.23,0-2.04.67-2.04,2.14v3.62h-2.22v-7.67h2.12v1.01c.54-.74,1.45-1.13,2.64-1.13Z"/>
    <path class="cls-2" d="M216.61,18.96h4.53c3.26,0,5.5,1.97,5.5,4.99s-2.24,4.99-5.5,4.99h-4.53v-9.98ZM221.03,27.04c1.98,0,3.28-1.18,3.28-3.09s-1.3-3.09-3.28-3.09h-2.11v6.19h2.11Z"/>
    <path class="cls-2" d="M235.01,24.56v4.38h-2.08v-.96c-.41.7-1.21,1.07-2.34,1.07-1.8,0-2.87-1-2.87-2.32s.96-2.29,3.29-2.29h1.77c0-.96-.57-1.51-1.77-1.51-.81,0-1.65.27-2.21.71l-.8-1.55c.84-.6,2.08-.93,3.31-.93,2.34,0,3.69,1.08,3.69,3.41ZM232.78,26.52v-.78h-1.53c-1.04,0-1.37.38-1.37.9,0,.56.47.93,1.25.93.74,0,1.38-.34,1.64-1.04Z"/>
    <path class="cls-2" d="M241.96,28.57c-.46.33-1.13.48-1.81.48-1.81,0-2.87-.93-2.87-2.75v-3.15h-1.18v-1.71h1.18v-1.87h2.22v1.87h1.91v1.71h-1.91v3.12c0,.66.36,1.01.96,1.01.33,0,.66-.1.9-.28l.6,1.57Z"/>
    <path class="cls-2" d="M250,24.56v4.38h-2.08v-.96c-.41.7-1.21,1.07-2.34,1.07-1.8,0-2.86-1-2.86-2.32s.96-2.29,3.29-2.29h1.77c0-.96-.57-1.51-1.77-1.51-.81,0-1.65.27-2.21.71l-.8-1.55c.84-.6,2.08-.93,3.31-.93,2.34,0,3.69,1.08,3.69,3.41ZM247.77,26.52v-.78h-1.53c-1.04,0-1.37.38-1.37.9,0,.56.47.93,1.25.93.74,0,1.38-.34,1.64-1.04Z"/>
    <path class="cls-2" d="M256.19,18.96h2.31v9.98h-2.31v-9.98Z"/>
    <path class="cls-2" d="M268.55,24.55v4.39h-2.22v-4.05c0-1.24-.57-1.81-1.55-1.81-1.07,0-1.84.66-1.84,2.07v3.79h-2.22v-7.67h2.12v.9c.6-.66,1.5-1.01,2.54-1.01,1.81,0,3.18,1.05,3.18,3.39Z"/>
    <path class="cls-2" d="M270.29,18.96c0-.7.56-1.24,1.38-1.24s1.38.51,1.38,1.2c0,.74-.56,1.28-1.38,1.28s-1.38-.54-1.38-1.24ZM270.56,21.27h2.22v7.67h-2.22v-7.67Z"/>
    <path class="cls-2" d="M279.79,28.57c-.46.33-1.13.48-1.81.48-1.81,0-2.87-.93-2.87-2.75v-3.15h-1.18v-1.71h1.18v-1.87h2.22v1.87h1.91v1.71h-1.91v3.12c0,.66.36,1.01.96,1.01.33,0,.66-.1.9-.28l.6,1.57Z"/>
    <path class="cls-2" d="M280.77,18.96c0-.7.56-1.24,1.38-1.24s1.38.51,1.38,1.2c0,.74-.56,1.28-1.38,1.28s-1.38-.54-1.38-1.24ZM281.05,21.27h2.22v7.67h-2.22v-7.67Z"/>
    <path class="cls-2" d="M292.12,24.56v4.38h-2.08v-.96c-.41.7-1.21,1.07-2.34,1.07-1.8,0-2.86-1-2.86-2.32s.96-2.29,3.29-2.29h1.77c0-.96-.57-1.51-1.77-1.51-.81,0-1.65.27-2.21.71l-.8-1.55c.84-.6,2.08-.93,3.31-.93,2.34,0,3.69,1.08,3.69,3.41ZM289.9,26.52v-.78h-1.53c-1.04,0-1.37.38-1.37.9,0,.56.47.93,1.25.93.74,0,1.38-.34,1.64-1.04Z"/>
    <path class="cls-2" d="M299.07,28.57c-.46.33-1.13.48-1.81.48-1.81,0-2.86-.93-2.86-2.75v-3.15h-1.18v-1.71h1.18v-1.87h2.22v1.87h1.91v1.71h-1.91v3.12c0,.66.36,1.01.96,1.01.33,0,.66-.1.9-.28l.6,1.57Z"/>
    <path class="cls-2" d="M300.06,18.96c0-.7.56-1.24,1.38-1.24s1.38.51,1.38,1.2c0,.74-.56,1.28-1.38,1.28s-1.38-.54-1.38-1.24ZM300.33,21.27h2.22v7.67h-2.22v-7.67Z"/>
    <path class="cls-2" d="M312.22,21.27l-3.24,7.67h-2.29l-3.22-7.67h2.29l2.12,5.22,2.19-5.22h2.14Z"/>
    <path class="cls-2" d="M320.39,25.73h-5.8c.21.95,1.03,1.54,2.19,1.54.81,0,1.4-.24,1.92-.74l1.18,1.28c-.71.81-1.78,1.24-3.16,1.24-2.65,0-4.38-1.67-4.38-3.95s1.75-3.95,4.09-3.95,3.99,1.51,3.99,3.98c0,.17-.03.41-.04.6ZM314.56,24.44h3.78c-.16-.97-.88-1.6-1.88-1.6s-1.74.61-1.9,1.6Z"/>
    <path class="cls-2" d="M78.06,40.41c0-2.31,1.78-3.95,4.28-3.95,1.61,0,2.88.7,3.43,1.95l-1.72.93c-.41-.73-1.03-1.05-1.72-1.05-1.13,0-2.01.78-2.01,2.12s.88,2.12,2.01,2.12c.7,0,1.31-.31,1.72-1.05l1.72.94c-.56,1.23-1.82,1.94-3.43,1.94-2.49,0-4.28-1.64-4.28-3.95Z"/>
    <path class="cls-2" d="M96.36,41.52c0,1.72-1.37,2.72-3.99,2.72h-5.16v-9.98h4.87c2.49,0,3.78,1.04,3.78,2.59,0,1-.51,1.77-1.33,2.19,1.11.36,1.82,1.21,1.82,2.47ZM89.5,36v2.35h2.29c1.13,0,1.74-.4,1.74-1.18s-.61-1.17-1.74-1.17h-2.29ZM94.03,41.28c0-.84-.64-1.24-1.84-1.24h-2.69v2.47h2.69c1.2,0,1.84-.37,1.84-1.23Z"/>
    <path class="cls-2" d="M97.68,34.26c0-.7.56-1.24,1.38-1.24s1.38.51,1.38,1.2c0,.74-.56,1.28-1.38,1.28s-1.38-.54-1.38-1.24ZM97.95,36.57h2.22v7.67h-2.22v-7.67Z"/>
    <path class="cls-2" d="M101.67,40.41c0-2.31,1.78-3.95,4.22-3.95s4.2,1.64,4.2,3.95-1.77,3.95-4.2,3.95-4.22-1.64-4.22-3.95ZM107.84,40.41c0-1.33-.84-2.12-1.95-2.12s-1.97.8-1.97,2.12.86,2.12,1.97,2.12,1.95-.8,1.95-2.12Z"/>
    <path class="cls-2" d="M120.38,37.88c0,2.22-1.67,3.61-4.33,3.61h-2.01v2.75h-2.31v-9.98h4.32c2.67,0,4.33,1.38,4.33,3.62ZM118.04,37.88c0-1.1-.71-1.74-2.12-1.74h-1.88v3.46h1.88c1.41,0,2.12-.64,2.12-1.72Z"/>
    <path class="cls-2" d="M121.28,40.41c0-2.31,1.78-3.95,4.22-3.95s4.2,1.64,4.2,3.95-1.77,3.95-4.2,3.95-4.22-1.64-4.22-3.95ZM127.45,40.41c0-1.33-.84-2.12-1.95-2.12s-1.97.8-1.97,2.12.85,2.12,1.97,2.12,1.95-.8,1.95-2.12Z"/>
    <path class="cls-2" d="M135.94,36.46v2.05c-.18-.01-.33-.03-.5-.03-1.23,0-2.04.67-2.04,2.14v3.62h-2.22v-7.67h2.12v1.01c.54-.74,1.45-1.13,2.64-1.13Z"/>
    <path class="cls-2" d="M142.48,43.87c-.46.33-1.13.48-1.81.48-1.81,0-2.87-.93-2.87-2.75v-3.15h-1.18v-1.71h1.18v-1.87h2.22v1.87h1.91v1.71h-1.91v3.12c0,.66.36,1.01.96,1.01.33,0,.66-.1.9-.29l.6,1.57Z"/>
    <path class="cls-2" d="M150.52,39.87v4.38h-2.08v-.96c-.41.7-1.21,1.07-2.34,1.07-1.8,0-2.86-1-2.86-2.32s.96-2.29,3.29-2.29h1.77c0-.96-.57-1.51-1.77-1.51-.81,0-1.65.27-2.21.71l-.8-1.55c.84-.6,2.08-.93,3.31-.93,2.34,0,3.69,1.08,3.69,3.41ZM148.3,41.82v-.78h-1.53c-1.04,0-1.37.38-1.37.9,0,.56.47.93,1.25.93.74,0,1.38-.34,1.64-1.04Z"/>
    <path class="cls-2" d="M152.53,33.67h2.22v10.57h-2.22v-10.57Z"/>
    <path class="cls-2" d="M160.38,39.25c0-3.01,2.31-5.16,5.42-5.16,1.72,0,3.16.63,4.1,1.77l-1.48,1.37c-.67-.77-1.51-1.17-2.51-1.17-1.87,0-3.19,1.31-3.19,3.19s1.33,3.19,3.19,3.19c1,0,1.84-.4,2.51-1.18l1.48,1.37c-.94,1.15-2.38,1.78-4.12,1.78-3.09,0-5.4-2.15-5.4-5.16Z"/>
    <path class="cls-2" d="M178.02,39.87v4.38h-2.08v-.96c-.41.7-1.21,1.07-2.34,1.07-1.8,0-2.87-1-2.87-2.32s.96-2.29,3.29-2.29h1.77c0-.96-.57-1.51-1.77-1.51-.81,0-1.65.27-2.21.71l-.8-1.55c.84-.6,2.08-.93,3.31-.93,2.34,0,3.69,1.08,3.69,3.41ZM175.8,41.82v-.78h-1.53c-1.04,0-1.37.38-1.37.9,0,.56.47.93,1.25.93.74,0,1.38-.34,1.64-1.04Z"/>
    <path class="cls-2" d="M187.87,39.85v4.39h-2.22v-4.05c0-1.24-.57-1.81-1.55-1.81-1.07,0-1.84.66-1.84,2.07v3.79h-2.22v-7.67h2.12v.9c.6-.66,1.5-1.01,2.54-1.01,1.81,0,3.18,1.05,3.18,3.39Z"/>
    <path class="cls-2" d="M189.39,40.41c0-2.31,1.78-3.95,4.28-3.95,1.61,0,2.88.7,3.43,1.95l-1.72.93c-.41-.73-1.03-1.05-1.72-1.05-1.13,0-2.01.78-2.01,2.12s.88,2.12,2.01,2.12c.7,0,1.31-.31,1.72-1.05l1.72.94c-.56,1.23-1.82,1.94-3.43,1.94-2.49,0-4.28-1.64-4.28-3.95Z"/>
    <path class="cls-2" d="M205.75,41.03h-5.8c.21.95,1.03,1.54,2.19,1.54.81,0,1.4-.24,1.92-.74l1.18,1.28c-.71.81-1.78,1.24-3.16,1.24-2.65,0-4.38-1.67-4.38-3.95s1.75-3.95,4.09-3.95,3.99,1.51,3.99,3.98c0,.17-.03.41-.04.6ZM199.92,39.74h3.78c-.16-.97-.88-1.6-1.88-1.6s-1.74.61-1.9,1.6Z"/>
    <path class="cls-2" d="M212.04,36.46v2.05c-.19-.01-.33-.03-.5-.03-1.23,0-2.04.67-2.04,2.14v3.62h-2.22v-7.67h2.12v1.01c.54-.74,1.45-1.13,2.64-1.13Z"/>
    <path class="cls-2" d="M217.61,34.26h4.53c3.26,0,5.5,1.97,5.5,4.99s-2.24,4.99-5.5,4.99h-4.53v-9.98ZM222.02,42.35c1.98,0,3.28-1.18,3.28-3.09s-1.3-3.09-3.28-3.09h-2.11v6.19h2.11Z"/>
    <path class="cls-2" d="M236,39.87v4.38h-2.08v-.96c-.41.7-1.21,1.07-2.34,1.07-1.8,0-2.86-1-2.86-2.32s.96-2.29,3.29-2.29h1.77c0-.96-.57-1.51-1.77-1.51-.81,0-1.65.27-2.21.71l-.8-1.55c.84-.6,2.08-.93,3.31-.93,2.34,0,3.69,1.08,3.69,3.41ZM233.78,41.82v-.78h-1.53c-1.04,0-1.37.38-1.37.9,0,.56.47.93,1.25.93.74,0,1.38-.34,1.64-1.04Z"/>
    <path class="cls-2" d="M242.96,43.87c-.46.33-1.13.48-1.81.48-1.81,0-2.86-.93-2.86-2.75v-3.15h-1.18v-1.71h1.18v-1.87h2.22v1.87h1.91v1.71h-1.91v3.12c0,.66.36,1.01.96,1.01.33,0,.66-.1.9-.29l.6,1.57Z"/>
    <path class="cls-2" d="M250.99,39.87v4.38h-2.08v-.96c-.41.7-1.21,1.07-2.34,1.07-1.8,0-2.86-1-2.86-2.32s.96-2.29,3.29-2.29h1.77c0-.96-.57-1.51-1.77-1.51-.81,0-1.65.27-2.21.71l-.8-1.55c.84-.6,2.08-.93,3.31-.93,2.34,0,3.69,1.08,3.69,3.41ZM248.77,41.82v-.78h-1.53c-1.04,0-1.37.38-1.37.9,0,.56.47.93,1.25.93.74,0,1.38-.34,1.64-1.04Z"/>
    <path class="cls-2" d="M264.92,42.39v1.85h-7.72v-9.98h7.54v1.85h-5.24v2.17h4.63v1.8h-4.63v2.31h5.43Z"/>
    <path class="cls-2" d="M271.37,44.24l-1.68-2.35-1.74,2.35h-2.42l2.95-3.86-2.85-3.81h2.49l1.62,2.24,1.67-2.24h2.37l-2.85,3.75,2.96,3.92h-2.52Z"/>
    <path class="cls-2" d="M283.33,40.41c0,2.41-1.67,3.95-3.82,3.95-.95,0-1.74-.3-2.31-.93v3.58h-2.22v-10.43h2.12v.88c.56-.67,1.38-1,2.41-1,2.15,0,3.82,1.54,3.82,3.95ZM281.08,40.41c0-1.33-.84-2.12-1.95-2.12s-1.95.8-1.95,2.12.84,2.12,1.95,2.12,1.95-.8,1.95-2.12Z"/>
    <path class="cls-2" d="M284.81,33.67h2.22v10.57h-2.22v-10.57Z"/>
    <path class="cls-2" d="M288.53,40.41c0-2.31,1.78-3.95,4.22-3.95s4.2,1.64,4.2,3.95-1.77,3.95-4.2,3.95-4.22-1.64-4.22-3.95ZM294.7,40.41c0-1.33-.84-2.12-1.95-2.12s-1.97.8-1.97,2.12.86,2.12,1.97,2.12,1.95-.8,1.95-2.12Z"/>
    <path class="cls-2" d="M303.19,36.46v2.05c-.19-.01-.33-.03-.5-.03-1.23,0-2.04.67-2.04,2.14v3.62h-2.22v-7.67h2.12v1.01c.54-.74,1.45-1.13,2.64-1.13Z"/>
    <path class="cls-2" d="M311.91,41.03h-5.8c.21.95,1.03,1.54,2.2,1.54.81,0,1.4-.24,1.92-.74l1.18,1.28c-.71.81-1.78,1.24-3.16,1.24-2.65,0-4.38-1.67-4.38-3.95s1.75-3.95,4.09-3.95,3.99,1.51,3.99,3.98c0,.17-.03.41-.04.6ZM306.08,39.74h3.78c-.16-.97-.88-1.6-1.88-1.6s-1.74.61-1.9,1.6Z"/>
    <path class="cls-2" d="M318.2,36.46v2.05c-.19-.01-.33-.03-.5-.03-1.23,0-2.04.67-2.04,2.14v3.62h-2.22v-7.67h2.12v1.01c.54-.74,1.45-1.13,2.64-1.13Z"/>
  </g>
</svg>