<svg width="376" height="50" viewBox="0 0 376 50" fill="none" xmlns="http://www.w3.org/2000/svg">
<path d="M92.2725 0.675537H94.3912V10.1601H92.2725L87.7506 4.21627V10.1601H85.6318V0.675537H87.6084L92.2583 6.77583V0.675537H92.2725Z" fill="#BB0E3D"/>
<path d="M103.463 10.1462L102.582 8.09858H98.6144L97.7328 10.1462H95.4861L99.5814 0.661621H101.629L105.724 10.1462H103.478H103.463ZM100.605 3.49136L99.4108 6.25H101.785L100.605 3.49136Z" fill="#BB0E3D"/>
<path d="M110.147 2.50989V10.1601H108.028V2.50989H105.34V0.675537H112.82V2.50989H110.132H110.147Z" fill="#BB0E3D"/>
<path d="M114.37 0.675537H116.489V10.1601H114.37V0.675537Z" fill="#BB0E3D"/>
<path d="M126.798 8.83798C125.845 9.77649 124.665 10.2457 123.257 10.2457C121.849 10.2457 120.669 9.77649 119.716 8.83798C118.764 7.89948 118.28 6.73345 118.28 5.33991C118.28 3.94637 118.764 2.78035 119.716 1.84184C120.669 0.903335 121.849 0.434082 123.257 0.434082C124.665 0.434082 125.845 0.903335 126.798 1.84184C127.751 2.78035 128.234 3.94637 128.234 5.33991C128.234 6.73345 127.751 7.89948 126.798 8.83798ZM126.073 5.35413C126.073 4.51516 125.803 3.78995 125.262 3.19272C124.722 2.59549 124.054 2.29688 123.257 2.29688C122.461 2.29688 121.793 2.59549 121.252 3.19272C120.712 3.78995 120.442 4.51516 120.442 5.35413C120.442 6.1931 120.712 6.91831 121.252 7.51554C121.793 8.11277 122.461 8.39717 123.257 8.39717C124.054 8.39717 124.722 8.09855 125.262 7.51554C125.803 6.91831 126.073 6.20732 126.073 5.35413Z" fill="#BB0E3D"/>
<path d="M136.652 0.675537H138.771V10.1601H136.652L132.13 4.21627V10.1601H130.012V0.675537H131.988L136.638 6.77583V0.675537H136.652Z" fill="#BB0E3D"/>
<path d="M147.858 10.1462L146.976 8.09858H143.009L142.127 10.1462H139.88L143.976 0.661621H146.023L150.119 10.1462H147.872H147.858ZM145 3.49136L143.805 6.25H146.18L145 3.49136Z" fill="#BB0E3D"/>
<path d="M151.199 10.1459V0.675537H153.318V8.26891H157.356V10.1601H151.199V10.1459Z" fill="#BB0E3D"/>
<path d="M166.841 8.28354C167.879 8.28354 168.732 7.87116 169.386 7.04641L170.737 8.43995C169.656 9.64864 168.391 10.2601 166.926 10.2601C165.462 10.2601 164.267 9.80505 163.314 8.88077C162.376 7.95648 161.892 6.79046 161.892 5.3827C161.892 3.97494 162.376 2.80891 163.343 1.87041C164.31 0.9319 165.49 0.462646 166.869 0.462646C168.419 0.462646 169.727 1.05988 170.78 2.24012L169.457 3.7332C168.789 2.90845 167.95 2.48186 166.969 2.48186C166.172 2.48186 165.49 2.73781 164.921 3.26395C164.352 3.79008 164.068 4.48685 164.068 5.36848C164.068 6.2501 164.338 6.96109 164.864 7.48723C165.39 8.02758 166.045 8.28354 166.798 8.28354H166.841Z" fill="#BB0E3D"/>
<path d="M179.099 10.1462L178.217 8.09858H174.25L173.368 10.1462H171.121L175.217 0.661621H177.264L181.36 10.1462H179.113H179.099ZM176.24 3.49136L175.046 6.25H177.421L176.24 3.49136Z" fill="#BB0E3D"/>
<path d="M189.081 0.675537H191.199V10.1601H189.081L184.559 4.21627V10.1601H182.44V0.675537H184.416L189.066 6.77583V0.675537H189.081Z" fill="#BB0E3D"/>
<path d="M197.883 8.28354C198.921 8.28354 199.774 7.87116 200.428 7.04641L201.779 8.43995C200.698 9.64864 199.433 10.2601 197.968 10.2601C196.504 10.2601 195.309 9.80505 194.356 8.88077C193.418 7.95648 192.934 6.79046 192.934 5.3827C192.934 3.97494 193.418 2.80891 194.385 1.87041C195.352 0.9319 196.518 0.462646 197.911 0.462646C199.461 0.462646 200.769 1.05988 201.822 2.24012L200.499 3.7332C199.831 2.90845 198.992 2.48186 198.011 2.48186C197.214 2.48186 196.532 2.73781 195.963 3.26395C195.394 3.79008 195.11 4.48685 195.11 5.36848C195.11 6.2501 195.38 6.96109 195.906 7.48723C196.432 8.02758 197.087 8.28354 197.84 8.28354H197.883Z" fill="#BB0E3D"/>
<path d="M210.297 0.675537V2.56677H205.576V4.51488H209.827V6.3208H205.576V8.28313H210.439V10.1601H203.457V0.675537H210.297Z" fill="#BB0E3D"/>
<path d="M220.023 3.81811C220.023 5.33963 219.426 6.3208 218.217 6.76161L220.62 10.1459H218.018L215.913 7.11711H214.449V10.1459H212.33V0.675537H215.928C217.407 0.675537 218.459 0.917274 219.084 1.41497C219.71 1.91266 220.023 2.70897 220.023 3.81811ZM217.463 4.94148C217.719 4.69974 217.862 4.33003 217.862 3.81811C217.862 3.3062 217.734 2.9507 217.449 2.76585C217.165 2.58099 216.71 2.48145 216.027 2.48145H214.435V5.28275H215.985C216.71 5.28275 217.193 5.16899 217.463 4.92726V4.94148Z" fill="#BB0E3D"/>
<path d="M225.768 0.675537H227.886V10.1601H225.768V0.675537Z" fill="#BB0E3D"/>
<path d="M236.845 0.675537H238.964V10.1601H236.845L232.323 4.21627V10.1601H230.204V0.675537H232.181L236.831 6.77583V0.675537H236.845Z" fill="#BB0E3D"/>
<path d="M243.514 2.56705C243.315 2.73769 243.216 2.95099 243.216 3.23538C243.216 3.51978 243.343 3.73308 243.585 3.88949C243.841 4.04591 244.41 4.24499 245.306 4.47251C246.202 4.70002 246.898 5.02708 247.396 5.46789C247.894 5.90871 248.136 6.56282 248.136 7.40178C248.136 8.24075 247.823 8.93752 247.183 9.46366C246.543 9.98979 245.704 10.26 244.666 10.26C243.159 10.26 241.808 9.70539 240.613 8.59625L241.879 7.04629C242.903 7.94214 243.841 8.38295 244.709 8.38295C245.093 8.38295 245.405 8.29763 245.619 8.12699C245.846 7.95636 245.946 7.72884 245.946 7.44444C245.946 7.16005 245.832 6.93253 245.59 6.76189C245.348 6.59126 244.893 6.42062 244.197 6.24998C243.088 5.99402 242.291 5.65275 241.779 5.22615C241.267 4.79956 241.011 4.14545 241.011 3.2496C241.011 2.35376 241.339 1.65698 241.978 1.17351C242.618 0.690038 243.429 0.434082 244.396 0.434082C245.036 0.434082 245.661 0.54784 246.301 0.761137C246.927 0.974434 247.481 1.28727 247.951 1.68542L246.884 3.23538C246.059 2.60971 245.206 2.29688 244.339 2.29688C243.983 2.29688 243.713 2.38219 243.5 2.55283L243.514 2.56705Z" fill="#BB0E3D"/>
<path d="M253.88 2.50989V10.1601H251.762V2.50989H249.074V0.675537H256.554V2.50989H253.866H253.88Z" fill="#BB0E3D"/>
<path d="M258.118 0.675537H260.236V10.1601H258.118V0.675537Z" fill="#BB0E3D"/>
<path d="M266.578 2.50989V10.1601H264.46V2.50989H261.772V0.675537H269.252V2.50989H266.564H266.578Z" fill="#BB0E3D"/>
<path d="M273.319 7.70012C273.674 8.14093 274.143 8.35423 274.741 8.35423C275.338 8.35423 275.807 8.14093 276.163 7.70012C276.504 7.2593 276.689 6.66207 276.689 5.90842V0.675537H278.808V5.97952C278.808 7.35884 278.424 8.41111 277.67 9.15054C276.916 9.88997 275.935 10.2597 274.755 10.2597C273.575 10.2597 272.594 9.88997 271.826 9.15054C271.058 8.41111 270.674 7.35884 270.674 5.99374V0.675537H272.793V5.90842C272.793 6.66207 272.963 7.2593 273.319 7.70012Z" fill="#BB0E3D"/>
<path d="M285.007 2.50989V10.1601H282.889V2.50989H280.201V0.675537H287.681V2.50989H284.993H285.007Z" fill="#BB0E3D"/>
<path d="M296.07 0.675537V2.56677H291.349V4.51488H295.601V6.3208H291.349V8.28313H296.212V10.1601H289.23V0.675537H296.07Z" fill="#BB0E3D"/>
<path d="M63.79 25.3471L51.0349 2.38208H4.90583C2.18985 2.38208 0 4.58615 0 7.30213V43.392C0 46.108 2.18985 48.312 4.90583 48.312H51.0349L63.79 25.3471Z" fill="#606061"/>
<path d="M62.5102 4.77101C61.6143 3.29215 59.9933 2.38208 58.2443 2.38208H54.4333L67.3591 25.3471L54.4333 48.312H58.2443C59.9933 48.312 61.6143 47.402 62.5102 45.9231L73.9856 25.3471L62.5102 4.77101Z" fill="#BA1F40"/>
<path d="M30.6153 15.137H27.2168V35.5566H30.6153V15.137Z" fill="white"/>
<path d="M20.4053 15.137V30.1104L11.0629 15.137H7.65015V35.5424H11.0629V20.5831L20.4053 35.5424H23.8181V15.137H20.4053Z" fill="white"/>
<path d="M46.7832 15.137V23.6404H37.4266V15.137H34.0281V35.5424H37.4266V27.0389H46.7832V35.5424H50.1818V15.137H46.7832Z" fill="white"/>
<path d="M85.8735 22.3894C85.8735 18.7918 88.6322 16.218 92.3578 16.218C94.4196 16.218 96.1402 16.9717 97.2636 18.3368L95.4861 19.972C94.6898 19.0478 93.6802 18.5785 92.4857 18.5785C90.2532 18.5785 88.6606 20.1427 88.6606 22.4036C88.6606 24.6646 90.2532 26.2288 92.4857 26.2288C93.6802 26.2288 94.6898 25.7453 95.4861 24.8068L97.2636 26.4421C96.1402 27.8214 94.4196 28.575 92.3293 28.575C88.6322 28.575 85.8735 26.0012 85.8735 22.4036V22.3894Z" fill="#606061"/>
<path d="M108.327 23.1143V28.3614H105.668V23.5125C105.668 22.0336 104.985 21.3511 103.805 21.3511C102.525 21.3511 101.601 22.1332 101.601 23.8253V28.3614H98.9417V15.7058H101.601V20.1424C102.312 19.4314 103.336 19.0475 104.516 19.0475C106.677 19.0475 108.313 20.313 108.313 23.1001L108.327 23.1143Z" fill="#606061"/>
<path d="M110.417 16.4313C110.417 15.5923 111.085 14.9524 112.066 14.9524C113.048 14.9524 113.716 15.5638 113.716 16.3886C113.716 17.2702 113.048 17.9243 112.066 17.9243C111.085 17.9243 110.417 17.2702 110.417 16.4455V16.4313ZM110.744 19.1899H113.403V28.3617H110.744V19.1899Z" fill="#606061"/>
<path d="M115.877 15.7058H118.537V28.3614H115.877V15.7058Z" fill="#606061"/>
<path d="M130.353 15.7058V28.3614H127.808V27.3092C127.14 28.1055 126.173 28.5036 124.95 28.5036C122.362 28.5036 120.357 26.6693 120.357 23.7827C120.357 20.896 122.347 19.0617 124.95 19.0617C126.073 19.0617 127.026 19.4172 127.694 20.1708V15.72H130.353V15.7058ZM127.751 23.7827C127.751 22.19 126.727 21.2373 125.419 21.2373C124.111 21.2373 123.058 22.19 123.058 23.7827C123.058 25.3753 124.082 26.328 125.419 26.328C126.756 26.328 127.751 25.3753 127.751 23.7827Z" fill="#606061"/>
<path d="M142.198 23.1143V28.3614H139.539V23.5125C139.539 22.0336 138.856 21.3511 137.676 21.3511C136.396 21.3511 135.472 22.1332 135.472 23.8253V28.3614H132.813V15.7058H135.472V20.1424C136.183 19.4314 137.207 19.0475 138.387 19.0475C140.549 19.0475 142.184 20.313 142.184 23.1001L142.198 23.1143Z" fill="#606061"/>
<path d="M144.032 23.783C144.032 21.0243 146.165 19.062 149.08 19.062C151.996 19.062 154.114 21.0243 154.114 23.783C154.114 26.5416 151.996 28.504 149.08 28.504C146.165 28.504 144.032 26.5416 144.032 23.783ZM151.413 23.783C151.413 22.1904 150.403 21.2376 149.08 21.2376C147.758 21.2376 146.72 22.1904 146.72 23.783C146.72 25.3756 147.744 26.3283 149.08 26.3283C150.417 26.3283 151.413 25.3756 151.413 23.783Z" fill="#606061"/>
<path d="M155.209 23.783C155.209 21.0243 157.342 19.062 160.257 19.062C163.172 19.062 165.291 21.0243 165.291 23.783C165.291 26.5416 163.172 28.504 160.257 28.504C157.342 28.504 155.209 26.5416 155.209 23.783ZM162.589 23.783C162.589 22.1904 161.58 21.2376 160.257 21.2376C158.935 21.2376 157.897 22.1904 157.897 23.783C157.897 25.3756 158.921 26.3283 160.257 26.3283C161.594 26.3283 162.589 25.3756 162.589 23.783Z" fill="#606061"/>
<path d="M176.411 15.7058V28.3614H173.865V27.3092C173.197 28.1055 172.23 28.5036 170.993 28.5036C168.405 28.5036 166.4 26.6693 166.4 23.7827C166.4 20.896 168.391 19.0617 170.993 19.0617C172.116 19.0617 173.069 19.4172 173.737 20.1708V15.72H176.396L176.411 15.7058ZM173.808 23.7827C173.808 22.19 172.785 21.2373 171.476 21.2373C170.168 21.2373 169.116 22.19 169.116 23.7827C169.116 25.3753 170.14 26.328 171.476 26.328C172.813 26.328 173.808 25.3753 173.808 23.7827Z" fill="#606061"/>
<path d="M183.137 22.3894C183.137 18.7918 185.896 16.218 189.621 16.218C191.683 16.218 193.404 16.9717 194.527 18.3368L192.75 19.972C191.953 19.0478 190.944 18.5785 189.749 18.5785C187.517 18.5785 185.924 20.1427 185.924 22.4036C185.924 24.6646 187.517 26.2288 189.749 26.2288C190.944 26.2288 191.953 25.7453 192.75 24.8068L194.527 26.4421C193.404 27.8214 191.683 28.575 189.593 28.575C185.896 28.575 183.137 26.0012 183.137 22.4036V22.3894Z" fill="#606061"/>
<path d="M204.253 23.1289V28.3618H201.765V27.2242C201.267 28.0631 200.314 28.504 198.964 28.504C196.816 28.504 195.537 27.3095 195.537 25.7311C195.537 24.1527 196.674 22.9867 199.476 22.9867H201.594C201.594 21.8491 200.912 21.1808 199.476 21.1808C198.509 21.1808 197.499 21.5078 196.831 22.0339L195.878 20.1712C196.888 19.4602 198.366 19.062 199.831 19.062C202.632 19.062 204.253 20.356 204.253 23.1431V23.1289ZM201.594 25.4609V24.5224H199.774C198.523 24.5224 198.139 24.9774 198.139 25.6031C198.139 26.2715 198.708 26.7123 199.646 26.7123C200.528 26.7123 201.296 26.2999 201.608 25.4609H201.594Z" fill="#606061"/>
<path d="M216.056 23.1147V28.3618H213.397V23.5128C213.397 22.0339 212.714 21.3514 211.534 21.3514C210.254 21.3514 209.33 22.1335 209.33 23.8256V28.3618H206.671V19.19H209.216V20.2707C209.927 19.4886 211.008 19.062 212.245 19.062C214.406 19.062 216.042 20.3276 216.042 23.1147H216.056Z" fill="#606061"/>
<path d="M217.876 23.783C217.876 21.0243 220.009 19.062 222.995 19.062C224.929 19.062 226.436 19.901 227.105 21.3941L225.043 22.5032C224.545 21.6358 223.82 21.2376 222.981 21.2376C221.63 21.2376 220.578 22.1761 220.578 23.783C220.578 25.3898 221.63 26.3283 222.981 26.3283C223.82 26.3283 224.545 25.9586 225.043 25.0628L227.105 26.1861C226.436 27.6508 224.915 28.504 222.995 28.504C220.009 28.504 217.876 26.5416 217.876 23.783Z" fill="#606061"/>
<path d="M237.471 24.5224H230.532C230.788 25.66 231.755 26.371 233.163 26.371C234.13 26.371 234.826 26.0866 235.466 25.4894L236.888 27.0251C236.035 27.992 234.755 28.504 233.106 28.504C229.935 28.504 227.873 26.5132 227.873 23.783C227.873 21.0528 229.977 19.062 232.764 19.062C235.551 19.062 237.542 20.8679 237.542 23.8256C237.542 24.0247 237.514 24.3233 237.485 24.5366L237.471 24.5224ZM230.489 22.9725H235.011C234.826 21.8064 233.959 21.067 232.764 21.067C231.57 21.067 230.688 21.8064 230.503 22.9725H230.489Z" fill="#606061"/>
<path d="M244.993 19.0479V21.5079C244.766 21.4937 244.595 21.4794 244.396 21.4794C242.931 21.4794 241.964 22.2757 241.964 24.039V28.376H239.305V19.2043H241.851V20.413C242.505 19.5313 243.585 19.0621 245.007 19.0621L244.993 19.0479Z" fill="#606061"/>
<path d="M251.662 16.4314H257.08C260.99 16.4314 263.664 18.7919 263.664 22.4037C263.664 26.0155 260.99 28.376 257.08 28.376H251.662V16.4314ZM256.952 26.1009C259.327 26.1009 260.877 24.6789 260.877 22.4037C260.877 20.1285 259.327 18.7066 256.952 18.7066H254.421V26.1151H256.952V26.1009Z" fill="#606061"/>
<path d="M273.689 23.1289V28.3618H271.2V27.2242C270.703 28.0631 269.75 28.504 268.399 28.504C266.252 28.504 264.972 27.3095 264.972 25.7311C264.972 24.1527 266.11 22.9867 268.911 22.9867H271.03C271.03 21.8491 270.347 21.1808 268.911 21.1808C267.944 21.1808 266.935 21.5078 266.266 22.0339L265.313 20.1712C266.323 19.4602 267.802 19.062 269.267 19.062C272.068 19.062 273.689 20.356 273.689 23.1431V23.1289ZM271.03 25.4609V24.5224H269.21C267.958 24.5224 267.574 24.9774 267.574 25.6031C267.574 26.2715 268.143 26.7123 269.082 26.7123C269.963 26.7123 270.731 26.2999 271.044 25.4609H271.03Z" fill="#606061"/>
<path d="M282.021 27.9211C281.481 28.3192 280.67 28.5041 279.86 28.5041C277.698 28.5041 276.433 27.3949 276.433 25.2193V21.4511H275.011V19.4034H276.433V17.1709H279.092V19.4034H281.381V21.4511H279.092V25.1909C279.092 25.973 279.518 26.3995 280.229 26.3995C280.628 26.3995 281.012 26.2858 281.31 26.0583L282.021 27.9353V27.9211Z" fill="#606061"/>
<path d="M291.648 23.1289V28.3618H289.159V27.2242C288.662 28.0631 287.709 28.504 286.358 28.504C284.211 28.504 282.931 27.3095 282.931 25.7311C282.931 24.1527 284.069 22.9867 286.87 22.9867H288.989C288.989 21.8491 288.306 21.1808 286.87 21.1808C285.903 21.1808 284.893 21.5078 284.225 22.0339L283.272 20.1712C284.282 19.4602 285.761 19.062 287.226 19.062C290.027 19.062 291.648 20.356 291.648 23.1431V23.1289ZM288.989 25.4609V24.5224H287.169C285.917 24.5224 285.533 24.9774 285.533 25.6031C285.533 26.2715 286.102 26.7123 287.041 26.7123C287.922 26.7123 288.69 26.2999 289.003 25.4609H288.989Z" fill="#606061"/>
<path d="M299.071 16.4314H301.83V28.376H299.071V16.4314Z" fill="#606061"/>
<path d="M313.86 23.1147V28.3618H311.201V23.5128C311.201 22.0339 310.518 21.3514 309.338 21.3514C308.058 21.3514 307.134 22.1335 307.134 23.8256V28.3618H304.475V19.19H307.02V20.2707C307.731 19.4886 308.812 19.062 310.049 19.062C312.21 19.062 313.845 20.3276 313.845 23.1147H313.86Z" fill="#606061"/>
<path d="M315.95 16.4313C315.95 15.5923 316.618 14.9524 317.599 14.9524C318.58 14.9524 319.249 15.5638 319.249 16.3886C319.249 17.2702 318.58 17.9243 317.599 17.9243C316.618 17.9243 315.95 17.2702 315.95 16.4455V16.4313ZM316.263 19.1899H318.922V28.3617H316.263V19.1899Z" fill="#606061"/>
<path d="M327.326 27.9211C326.785 28.3192 325.975 28.5041 325.164 28.5041C323.003 28.5041 321.737 27.3949 321.737 25.2193V21.4511H320.315V19.4034H321.737V17.1709H324.397V19.4034H326.686V21.4511H324.397V25.1909C324.397 25.973 324.823 26.3995 325.534 26.3995C325.932 26.3995 326.316 26.2858 326.601 26.0583L327.312 27.9353L327.326 27.9211Z" fill="#606061"/>
<path d="M328.506 16.4313C328.506 15.5923 329.174 14.9524 330.155 14.9524C331.137 14.9524 331.805 15.5638 331.805 16.3886C331.805 17.2702 331.137 17.9243 330.155 17.9243C329.174 17.9243 328.506 17.2702 328.506 16.4455V16.4313ZM328.833 19.1899H331.492V28.3617H328.833V19.1899Z" fill="#606061"/>
<path d="M342.086 23.1289V28.3618H339.597V27.2242C339.1 28.0631 338.147 28.504 336.796 28.504C334.649 28.504 333.369 27.3095 333.369 25.7311C333.369 24.1527 334.507 22.9867 337.308 22.9867H339.427C339.427 21.8491 338.744 21.1808 337.308 21.1808C336.341 21.1808 335.331 21.5078 334.663 22.0339L333.71 20.1712C334.72 19.4602 336.199 19.062 337.664 19.062C340.465 19.062 342.086 20.356 342.086 23.1431V23.1289ZM339.427 25.4609V24.5224H337.607C336.355 24.5224 335.971 24.9774 335.971 25.6031C335.971 26.2715 336.54 26.7123 337.479 26.7123C338.36 26.7123 339.128 26.2999 339.441 25.4609H339.427Z" fill="#606061"/>
<path d="M350.404 27.9211C349.864 28.3192 349.054 28.5041 348.243 28.5041C346.082 28.5041 344.816 27.3949 344.816 25.2193V21.4511H343.394V19.4034H344.816V17.1709H347.475V19.4034H349.765V21.4511H347.475V25.1909C347.475 25.973 347.902 26.3995 348.613 26.3995C349.011 26.3995 349.395 26.2858 349.679 26.0583L350.39 27.9353L350.404 27.9211Z" fill="#606061"/>
<path d="M351.584 16.4313C351.584 15.5923 352.253 14.9524 353.234 14.9524C354.215 14.9524 354.883 15.5638 354.883 16.3886C354.883 17.2702 354.215 17.9243 353.234 17.9243C352.253 17.9243 351.584 17.2702 351.584 16.4455V16.4313ZM351.912 19.1899H354.571V28.3617H351.912V19.1899Z" fill="#606061"/>
<path d="M366.16 19.1902L362.292 28.362H359.548L355.694 19.1902H358.439L360.984 25.4327L363.615 19.1902H366.174H366.16Z" fill="#606061"/>
<path d="M375.929 24.5224H368.99C369.246 25.66 370.213 26.371 371.62 26.371C372.587 26.371 373.284 26.0866 373.924 25.4894L375.346 27.0251C374.493 27.992 373.213 28.504 371.563 28.504C368.392 28.504 366.331 26.5132 366.331 23.783C366.331 21.0528 368.435 19.062 371.222 19.062C374.009 19.062 376 20.8679 376 23.8256C376 24.0247 375.972 24.3233 375.943 24.5366L375.929 24.5224ZM368.961 22.9725H373.483C373.298 21.8064 372.431 21.067 371.236 21.067C370.042 21.067 369.16 21.8064 368.975 22.9725H368.961Z" fill="#606061"/>
<path d="M85.7598 41.5579C85.7598 38.7992 87.8927 36.8369 90.8789 36.8369C92.8128 36.8369 94.3201 37.6759 94.9884 39.169L92.9265 40.2781C92.4289 39.4107 91.7036 39.0125 90.8647 39.0125C89.5138 39.0125 88.4615 39.951 88.4615 41.5579C88.4615 43.1647 89.5138 44.1032 90.8647 44.1032C91.7036 44.1032 92.4289 43.7335 92.9265 42.8377L94.9884 43.961C94.3201 45.4257 92.7986 46.2789 90.8789 46.2789C87.8927 46.2789 85.7598 44.3165 85.7598 41.5579Z" fill="#606061"/>
<path d="M107.658 42.8802C107.658 44.9421 106.023 46.1365 102.88 46.1365H96.709V34.1919H102.539C105.525 34.1919 107.061 35.4432 107.061 37.2918C107.061 38.4863 106.45 39.4106 105.468 39.9225C106.805 40.3491 107.658 41.3729 107.658 42.8802ZM99.4534 36.2822V39.0977H102.198C103.549 39.0977 104.274 38.6143 104.274 37.6757C104.274 36.7372 103.534 36.2822 102.198 36.2822H99.4534ZM104.885 42.5958C104.885 41.5862 104.118 41.1169 102.681 41.1169H99.4534V44.0604H102.681C104.118 44.0604 104.885 43.6196 104.885 42.5958Z" fill="#606061"/>
<path d="M109.251 34.2059C109.251 33.3669 109.919 32.7271 110.9 32.7271C111.881 32.7271 112.55 33.3385 112.55 34.1633C112.55 35.0449 111.881 35.699 110.9 35.699C109.919 35.699 109.251 35.0449 109.251 34.2201V34.2059ZM109.578 36.9646H112.237V46.1363H109.578V36.9646Z" fill="#606061"/>
<path d="M114.029 41.5579C114.029 38.7992 116.162 36.8369 119.077 36.8369C121.992 36.8369 124.11 38.7992 124.11 41.5579C124.11 44.3165 121.992 46.2789 119.077 46.2789C116.162 46.2789 114.029 44.3165 114.029 41.5579ZM121.423 41.5579C121.423 39.9653 120.413 39.0125 119.091 39.0125C117.768 39.0125 116.73 39.9653 116.73 41.5579C116.73 43.1505 117.754 44.1032 119.091 44.1032C120.427 44.1032 121.423 43.1505 121.423 41.5579Z" fill="#606061"/>
<path d="M136.425 38.529C136.425 41.1881 134.434 42.8376 131.235 42.8376H128.831V46.1224H126.073V34.1777H131.235C134.42 34.1777 136.425 35.8272 136.425 38.5148V38.529ZM133.638 38.529C133.638 37.2208 132.784 36.4529 131.092 36.4529H128.846V40.5909H131.092C132.784 40.5909 133.638 39.823 133.638 38.529Z" fill="#606061"/>
<path d="M137.505 41.5579C137.505 38.7992 139.638 36.8369 142.553 36.8369C145.468 36.8369 147.587 38.7992 147.587 41.5579C147.587 44.3165 145.468 46.2789 142.553 46.2789C139.638 46.2789 137.505 44.3165 137.505 41.5579ZM144.9 41.5579C144.9 39.9653 143.89 39.0125 142.568 39.0125C141.245 39.0125 140.207 39.9653 140.207 41.5579C140.207 43.1505 141.231 44.1032 142.568 44.1032C143.904 44.1032 144.9 43.1505 144.9 41.5579Z" fill="#606061"/>
<path d="M155.067 36.8223V39.2823C154.84 39.2681 154.669 39.2539 154.47 39.2539C153.005 39.2539 152.024 40.0502 152.024 41.8134V46.1505H149.365V36.9787H151.911V38.1874C152.565 37.3057 153.645 36.8365 155.067 36.8365V36.8223Z" fill="#606061"/>
<path d="M162.902 45.6955C162.362 46.0936 161.551 46.2785 160.741 46.2785C158.579 46.2785 157.314 45.1693 157.314 42.9937V39.2255H155.892V37.1778H157.314V34.9453H159.973V37.1778H162.262V39.2255H159.973V42.9653C159.973 43.7474 160.4 44.174 161.111 44.174C161.509 44.174 161.893 44.0602 162.191 43.8327L162.902 45.7097V45.6955Z" fill="#606061"/>
<path d="M172.515 40.9038V46.1367H170.026V44.9991C169.529 45.838 168.576 46.2789 167.225 46.2789C165.078 46.2789 163.798 45.0844 163.798 43.506C163.798 41.9276 164.936 40.7616 167.737 40.7616H169.856C169.856 39.624 169.173 38.9557 167.737 38.9557C166.77 38.9557 165.76 39.2827 165.092 39.8089L164.139 37.9461C165.149 37.2351 166.628 36.8369 168.092 36.8369C170.894 36.8369 172.515 38.1309 172.515 40.918V40.9038ZM169.856 43.2358V42.2973H168.036C166.784 42.2973 166.4 42.7524 166.4 43.378C166.4 44.0464 166.969 44.4872 167.908 44.4872C168.789 44.4872 169.557 44.0748 169.87 43.2358H169.856Z" fill="#606061"/>
<path d="M174.932 33.481H177.591V46.1366H174.932V33.481Z" fill="#606061"/>
<path d="M184.331 40.1643C184.331 36.5667 187.09 33.9929 190.816 33.9929C192.877 33.9929 194.598 34.7466 195.721 36.1117L193.944 37.7469C193.148 36.8227 192.138 36.3534 190.943 36.3534C188.711 36.3534 187.118 37.9176 187.118 40.1785C187.118 42.4395 188.711 44.0037 190.943 44.0037C192.138 44.0037 193.148 43.5202 193.944 42.5817L195.721 44.217C194.598 45.5963 192.877 46.3499 190.787 46.3499C187.09 46.3499 184.331 43.7761 184.331 40.1785V40.1643Z" fill="#606061"/>
<path d="M205.448 40.9038V46.1367H202.959V44.9991C202.462 45.838 201.509 46.2789 200.158 46.2789C198.011 46.2789 196.731 45.0844 196.731 43.506C196.731 41.9276 197.869 40.7616 200.67 40.7616H202.789C202.789 39.624 202.106 38.9557 200.67 38.9557C199.703 38.9557 198.694 39.2827 198.025 39.8089L197.072 37.9461C198.082 37.2351 199.561 36.8369 201.026 36.8369C203.827 36.8369 205.448 38.1309 205.448 40.918V40.9038ZM202.789 43.2358V42.2973H200.969C199.717 42.2973 199.333 42.7524 199.333 43.378C199.333 44.0464 199.902 44.4872 200.841 44.4872C201.722 44.4872 202.49 44.0748 202.803 43.2358H202.789Z" fill="#606061"/>
<path d="M217.25 40.8896V46.1367H214.591V41.2877C214.591 39.8089 213.909 39.1263 212.728 39.1263C211.449 39.1263 210.524 39.9084 210.524 41.6005V46.1367H207.865V36.9649H210.411V38.0456C211.122 37.2635 212.202 36.8369 213.439 36.8369C215.601 36.8369 217.236 38.1025 217.236 40.8896H217.25Z" fill="#606061"/>
<path d="M219.071 41.5579C219.071 38.7992 221.204 36.8369 224.19 36.8369C226.124 36.8369 227.631 37.6759 228.299 39.169L226.237 40.2781C225.74 39.4107 225.014 39.0125 224.175 39.0125C222.825 39.0125 221.772 39.951 221.772 41.5579C221.772 43.1647 222.825 44.1032 224.175 44.1032C225.014 44.1032 225.74 43.7335 226.237 42.8377L228.299 43.961C227.631 45.4257 226.109 46.2789 224.19 46.2789C221.204 46.2789 219.071 44.3165 219.071 41.5579Z" fill="#606061"/>
<path d="M238.666 42.2973H231.726C231.982 43.4349 232.949 44.1459 234.357 44.1459C235.324 44.1459 236.035 43.8615 236.661 43.2643L238.082 44.8C237.229 45.7669 235.95 46.2789 234.3 46.2789C231.129 46.2789 229.067 44.2881 229.067 41.5579C229.067 38.8277 231.157 36.8369 233.959 36.8369C236.76 36.8369 238.737 38.6428 238.737 41.6005C238.737 41.7996 238.708 42.0982 238.68 42.3115L238.666 42.2973ZM231.684 40.7474H236.205C236.021 39.5813 235.153 38.8419 233.959 38.8419C232.764 38.8419 231.883 39.5813 231.684 40.7474Z" fill="#606061"/>
<path d="M246.187 36.8223V39.2823C245.96 39.2681 245.789 39.2539 245.59 39.2539C244.125 39.2539 243.144 40.0502 243.144 41.8134V46.1505H240.485V36.9787H243.03V38.1874C243.685 37.3057 244.765 36.8365 246.187 36.8365V36.8223Z" fill="#606061"/>
<path d="M252.856 34.2058H258.274C262.185 34.2058 264.858 36.5663 264.858 40.1781C264.858 43.79 262.185 46.1504 258.274 46.1504H252.856V34.2058ZM258.146 43.8753C260.521 43.8753 262.071 42.4533 262.071 40.1781C262.071 37.903 260.521 36.481 258.146 36.481H255.629V43.8895H258.146V43.8753Z" fill="#606061"/>
<path d="M274.883 40.9038V46.1367H272.395V44.9991C271.897 45.838 270.944 46.2789 269.593 46.2789C267.446 46.2789 266.167 45.0844 266.167 43.506C266.167 41.9276 267.304 40.7616 270.105 40.7616H272.224C272.224 39.624 271.542 38.9557 270.105 38.9557C269.138 38.9557 268.129 39.2827 267.461 39.8089L266.508 37.9461C267.517 37.2351 268.996 36.8369 270.461 36.8369C273.262 36.8369 274.883 38.1309 274.883 40.918V40.9038ZM272.224 43.2358V42.2973H270.404C269.153 42.2973 268.769 42.7524 268.769 43.378C268.769 44.0464 269.338 44.4872 270.276 44.4872C271.158 44.4872 271.926 44.0748 272.238 43.2358H272.224Z" fill="#606061"/>
<path d="M283.216 45.6955C282.676 46.0936 281.865 46.2785 281.055 46.2785C278.893 46.2785 277.628 45.1693 277.628 42.9937V39.2255H276.206V37.1778H277.628V34.9453H280.287V37.1778H282.576V39.2255H280.287V42.9653C280.287 43.7474 280.713 44.174 281.424 44.174C281.822 44.174 282.206 44.0602 282.491 43.8327L283.202 45.7097L283.216 45.6955Z" fill="#606061"/>
<path d="M292.843 40.9038V46.1367H290.354V44.9991C289.857 45.838 288.904 46.2789 287.553 46.2789C285.406 46.2789 284.126 45.0844 284.126 43.506C284.126 41.9276 285.264 40.7616 288.065 40.7616H290.184C290.184 39.624 289.501 38.9557 288.065 38.9557C287.098 38.9557 286.088 39.2827 285.42 39.8089L284.467 37.9461C285.477 37.2351 286.956 36.8369 288.42 36.8369C291.222 36.8369 292.843 38.1309 292.843 40.918V40.9038ZM290.184 43.2358V42.2973H288.363C287.112 42.2973 286.728 42.7524 286.728 43.378C286.728 44.0464 287.297 44.4872 288.235 44.4872C289.117 44.4872 289.885 44.0748 290.198 43.2358H290.184Z" fill="#606061"/>
<path d="M309.508 43.9182V46.1365H300.266V34.1919H309.281V36.4102H303.01V38.9982H308.556V41.1454H303.01V43.904H309.508V43.9182Z" fill="#606061"/>
<path d="M317.244 46.1364L315.224 43.3208L313.148 46.1364H310.248L313.774 41.5149L310.361 36.9646H313.347L315.296 39.6379L317.286 36.9646H320.116L316.703 41.4438L320.258 46.1364H317.244Z" fill="#606061"/>
<path d="M331.549 41.5575C331.549 44.4441 329.558 46.2784 326.984 46.2784C325.847 46.2784 324.908 45.9229 324.226 45.1693V49.4494H321.566V36.9645H324.112V38.0167C324.78 37.2204 325.761 36.8223 326.998 36.8223C329.572 36.8223 331.563 38.6708 331.563 41.5432L331.549 41.5575ZM328.861 41.5575C328.861 39.9648 327.852 39.0121 326.529 39.0121C325.207 39.0121 324.197 39.9648 324.197 41.5575C324.197 43.1501 325.207 44.1028 326.529 44.1028C327.852 44.1028 328.861 43.1501 328.861 41.5575Z" fill="#606061"/>
<path d="M333.327 33.481H335.986V46.1366H333.327V33.481Z" fill="#606061"/>
<path d="M337.792 41.5579C337.792 38.7992 339.924 36.8369 342.84 36.8369C345.755 36.8369 347.873 38.7992 347.873 41.5579C347.873 44.3165 345.755 46.2789 342.84 46.2789C339.924 46.2789 337.792 44.3165 337.792 41.5579ZM345.172 41.5579C345.172 39.9653 344.162 39.0125 342.84 39.0125C341.517 39.0125 340.479 39.9653 340.479 41.5579C340.479 43.1505 341.503 44.1032 342.84 44.1032C344.176 44.1032 345.172 43.1505 345.172 41.5579Z" fill="#606061"/>
<path d="M355.339 36.8223V39.2823C355.111 39.2681 354.941 39.2539 354.742 39.2539C353.277 39.2539 352.296 40.0502 352.296 41.8134V46.1505H349.637V36.9787H352.182V38.1874C352.836 37.3057 353.917 36.8365 355.339 36.8365V36.8223Z" fill="#606061"/>
<path d="M365.776 42.2973H358.837C359.093 43.4349 360.06 44.1459 361.468 44.1459C362.434 44.1459 363.145 43.8615 363.771 43.2643L365.193 44.8C364.34 45.7669 363.06 46.2789 361.411 46.2789C358.24 46.2789 356.178 44.2881 356.178 41.5579C356.178 38.8277 358.268 36.8369 361.069 36.8369C363.871 36.8369 365.847 38.6428 365.847 41.6005C365.847 41.7996 365.819 42.0982 365.79 42.3115L365.776 42.2973ZM358.808 40.7474H363.33C363.145 39.5813 362.278 38.8419 361.084 38.8419C359.889 38.8419 359.007 39.5813 358.808 40.7474Z" fill="#606061"/>
<path d="M373.313 36.8223V39.2823C373.085 39.2681 372.914 39.2539 372.715 39.2539C371.251 39.2539 370.269 40.0502 370.269 41.8134V46.1505H367.61V36.9787H370.156V38.1874C370.81 37.3057 371.891 36.8365 373.313 36.8365V36.8223Z" fill="#606061"/>
</svg>
