<svg width="97" height="96" viewBox="0 0 97 96" fill="none" xmlns="http://www.w3.org/2000/svg">
<g clip-path="url(#clip0_219_2782)">
<path d="M83.4283 18.5399C68.0983 3.22988 44.0783 0.899882 26.0983 12.9899C25.3983 13.4599 25.2083 14.4199 25.6883 15.1199C26.1583 15.8199 27.1183 16.0099 27.8183 15.5299C44.1083 4.58988 65.7783 6.28988 80.1583 19.6399L77.4883 22.3099C64.5583 10.4499 45.2483 8.79988 30.4883 18.2799C29.7783 18.7399 29.5783 19.6899 30.0383 20.3999C30.4983 21.1099 31.4483 21.3099 32.1583 20.8499C46.1883 11.8299 64.5983 13.7799 76.4283 25.5299C90.2483 39.3499 90.2383 61.7599 76.4283 75.5699C62.6083 89.3899 40.1983 89.3799 26.3883 75.5699C14.3883 63.5599 12.5983 44.7199 22.1383 30.6699C22.6183 29.9699 22.4383 29.0199 21.7383 28.5399C21.0383 28.0599 20.0883 28.2399 19.6083 28.9399C9.56832 43.7299 11.0383 63.4999 23.1683 76.6399L20.4983 79.3099C7.33832 65.0799 5.50832 43.7199 16.0583 27.4599C16.5183 26.7499 16.3283 25.7999 15.6183 25.3399C14.9083 24.8799 13.9583 25.0699 13.4983 25.7799C-0.191683 46.7199 5.68832 74.7899 26.6283 88.4799C47.5683 102.17 75.6383 96.2899 89.3283 75.3499C101.058 57.4099 98.5983 33.6999 83.4483 18.5399H83.4283ZM79.6483 24.4899L82.3183 21.8199C97.3583 38.0299 97.3583 63.0999 82.3183 79.3099L79.6483 76.6399C93.2583 61.9199 93.2583 39.2099 79.6483 24.4799V24.4899ZM22.6583 81.4799L25.3283 78.8099C40.0583 92.3899 62.7483 92.3899 77.4883 78.8099L80.1583 81.4799C63.9483 96.5199 38.8783 96.5199 22.6683 81.4799H22.6583ZM29.9483 38.5599C23.3183 50.3999 27.5483 65.3799 39.3983 72.0099C51.2383 78.6399 66.2183 74.4099 72.8483 62.5599C79.4783 50.7199 75.2483 35.7399 63.3983 29.1099C55.5883 24.7399 46.0183 24.9599 38.4183 29.6899C37.6983 30.1399 36.7483 29.9199 36.3083 29.1999C35.8683 28.4799 36.0783 27.5299 36.7983 27.0899C49.7583 19.0199 66.7983 22.9899 74.8683 35.9499C82.9383 48.9099 78.9683 65.9499 66.0083 74.0199C53.0483 82.0899 36.0083 78.1199 27.9383 65.1599C22.6183 56.6099 22.3683 45.8499 27.2783 37.0599C27.6983 36.3199 28.6283 36.0599 29.3683 36.4799C30.0983 36.8899 30.3583 37.8199 29.9583 38.5599H29.9483ZM12.6983 22.6699H12.7383L21.1383 22.4699L40.2783 41.6099C35.3283 47.7599 36.2983 56.7499 42.4483 61.6999C48.5983 66.6499 57.5883 65.6799 62.5383 59.5299C67.4883 53.3799 66.5183 44.3899 60.3683 39.4399C55.1383 35.2299 47.6783 35.2299 42.4483 39.4399L23.3083 20.2999L23.5083 11.8999C23.5183 11.4799 23.3583 11.0699 23.0583 10.7799L12.8583 0.579883C12.2583 -0.0201172 11.2883 -0.0201172 10.6883 0.579883C10.4283 0.839883 10.2683 1.19988 10.2383 1.56988L9.78832 8.94988L2.40832 9.39988C1.55832 9.44988 0.918317 10.1799 0.968317 11.0199C0.988317 11.3899 1.14832 11.7499 1.41832 12.0099L11.6183 22.2099C11.9083 22.4999 12.2983 22.6599 12.6983 22.6599V22.6699ZM51.3983 39.3499C57.5983 39.3499 62.6283 44.3599 62.6283 50.5599C62.6283 56.7599 57.6183 61.7899 51.4183 61.7899C45.2183 61.7899 40.1883 56.7799 40.1883 50.5799C40.1883 48.1299 40.9883 45.7499 42.4583 43.7999L48.3683 49.7099L48.5183 49.8599L47.4183 49.5699C46.5983 49.3499 45.7583 49.8399 45.5483 50.6599C45.3283 51.4799 45.8183 52.3199 46.6383 52.5299L53.2383 54.2699C53.2383 54.2699 53.2683 54.2699 53.2783 54.2699C53.3983 54.2999 53.5083 54.3099 53.6283 54.3199C53.8983 54.3199 54.1583 54.2499 54.3883 54.1199C54.5183 54.0399 54.6383 53.9399 54.7383 53.8299C54.8083 53.7399 54.8783 53.6499 54.9483 53.5499C54.9683 53.5199 54.9683 53.4899 54.9783 53.4599C55.1183 53.1599 55.1683 52.8199 55.1083 52.4899C55.1083 52.4599 55.1083 52.4299 55.1083 52.3899L53.3683 45.7899C53.1483 44.9699 52.3083 44.4799 51.4883 44.6999C50.6683 44.9199 50.1883 45.7499 50.3983 46.5699L50.6883 47.6699L44.6283 41.6099C46.5783 40.1299 48.9483 39.3299 51.3883 39.3299L51.3983 39.3499ZM13.0983 5.15988L20.4283 12.4899L20.3083 17.3099L12.8083 9.80988L13.0883 5.15988H13.0983ZM10.6483 11.9699L18.1483 19.4699L13.3283 19.5899L5.99832 12.2599L10.6483 11.9799V11.9699Z" fill="white"/>
</g>
<defs>
<clipPath id="clip0_219_2782">
<rect width="95.73" height="95.74" fill="white" transform="translate(0.968262 0.129883)"/>
</clipPath>
</defs>
</svg>
