<svg width="73" height="78" viewBox="0 0 73 78" fill="none" xmlns="http://www.w3.org/2000/svg">
<path d="M13.4782 16.3188C17.9987 16.3188 21.6621 12.6663 21.6621 8.15938C21.6621 3.65245 17.9987 0 13.4782 0C8.95775 0 5.29431 3.65245 5.29431 8.15938C5.29431 12.6663 8.95775 16.3104 13.4782 16.3188ZM13.4782 2.5718C16.5703 2.5718 19.0826 5.07658 19.0826 8.15938C19.0826 11.2422 16.5703 13.747 13.4782 13.747C10.3862 13.747 7.87384 11.2422 7.87384 8.15938C7.87384 5.07658 10.3862 2.5718 13.4782 2.5718ZM67.5812 42.7823C70.1859 42.7823 72.2949 40.6796 72.2949 38.0827C72.2949 35.4858 70.1859 33.3831 67.5812 33.3831H57.137V28.0049C57.9772 26.941 58.431 25.6258 58.431 24.2687V13.8726C58.431 10.5134 55.6918 7.78241 52.3224 7.78241H49.558C48.8438 7.78241 48.2725 8.36043 48.2725 9.06412V29.0772C48.2725 29.7893 48.8522 30.3589 49.558 30.3589V33.3915H44.4998V33.0145C44.4998 30.6019 42.5337 28.65 40.1138 28.6416H37.4082C36.8452 28.3652 36.2319 28.2144 35.6017 28.206H26.2751L20.7883 22.2414C19.3935 20.6833 17.4946 19.6613 15.4192 19.3764C10.7475 18.79 6.48745 22.0823 5.89928 26.74C5.85727 27.0918 5.83206 27.452 5.83206 27.8039V51.7459C5.83206 53.1198 6.27739 54.4517 7.10922 55.5491H3.89951L2.86602 37.6052C2.82401 36.8931 2.21904 36.357 1.50484 36.3905C0.790634 36.424 0.269686 37.0356 0.303296 37.7476L1.41241 56.9062C1.45442 57.5848 2.01738 58.1209 2.69797 58.1209H11.0247V75.4282H8.49562C7.78141 75.4282 7.21005 76.0062 7.20165 76.7099C7.20165 77.422 7.78141 77.9916 8.48721 78H69.3877C70.1019 78 70.6732 77.422 70.6816 76.7183C70.6816 76.0062 70.1019 75.4366 69.3961 75.4282H53.7172V42.7823H67.5812ZM69.7238 38.0827C69.7238 39.2555 68.7659 40.2105 67.5896 40.2105H21.3176V35.9465H24.0064C24.0064 35.9465 24.082 35.9633 24.124 35.9633H35.7781C35.8286 35.9633 35.879 35.9465 35.921 35.9465H67.5812C68.7575 35.9465 69.7154 36.9015 69.7154 38.0743L69.7238 38.0827ZM31.6274 47.4819H21.3176V42.7823H44.2309V75.4282H35.921C36.4167 74.6156 36.6772 73.6774 36.6772 72.7224V52.5166C36.6772 49.7354 34.417 47.4903 31.6274 47.4819ZM50.852 10.3375H52.3308C54.2802 10.3375 55.8598 11.9124 55.8598 13.8559V24.252C55.8598 26.1955 54.2802 27.7704 52.3308 27.7704H50.852V10.3375ZM52.1544 30.3506H52.5493C52.6501 30.3506 52.7425 30.3338 52.8434 30.3254C52.9106 30.3254 52.9694 30.317 53.0366 30.3087C53.566 30.2752 54.0785 30.1663 54.5827 29.9987V33.3831H52.1712V30.3506H52.1544ZM41.9371 33.0061V33.3831H39.4332C39.6264 32.8386 39.7021 32.2606 39.6432 31.6909C39.618 31.5317 39.5928 31.3642 39.5424 31.205H40.1306C41.1305 31.205 41.9371 32.0092 41.9371 33.0061ZM8.4284 51.7459V27.8039C8.4284 26.1033 9.1594 24.4865 10.4366 23.364C11.5205 22.4006 12.9153 21.8728 14.3689 21.8812C14.621 21.8812 14.8814 21.898 15.1335 21.9315C16.5955 22.1493 17.9399 22.8697 18.9146 23.9839L24.7878 30.3673C25.0315 30.6354 25.376 30.7862 25.7373 30.7862H35.6269C35.8958 30.7862 36.1647 30.8616 36.4083 30.9956H36.4251C36.7864 31.1966 37.0301 31.5569 37.0889 31.959C37.1309 32.3276 37.0049 32.7045 36.7528 32.981C36.5428 33.2155 36.2487 33.3663 35.9294 33.3998H24.4517L16.4779 28.7421C15.8645 28.3819 15.0747 28.5913 14.7134 29.2029C14.3605 29.806 14.5537 30.5767 15.1419 30.9453L18.7549 33.1904V48.7887C18.7549 49.5008 19.3347 50.0705 20.0405 50.0705H31.6358C32.997 50.0705 34.1061 51.1762 34.1061 52.5333V72.7391C34.1061 74.2303 32.8961 75.445 31.3921 75.445C29.8881 75.445 28.6781 74.2386 28.6781 72.7391V59.6204C28.6781 57.3837 26.8548 55.5659 24.6114 55.5659H12.2515C10.1425 55.5659 8.4368 53.8569 8.4368 51.7626L8.4284 51.7459ZM13.6043 58.1209H24.603C25.4264 58.1209 26.0902 58.7827 26.0902 59.6037V72.7224C26.0902 73.6774 26.3507 74.6072 26.8464 75.4282H13.6043V58.1209ZM51.1461 75.4282H46.8105V42.7823H51.1461V75.4282Z" fill="white"/>
</svg>
