<svg width="75" height="94" viewBox="0 0 75 94" fill="none" xmlns="http://www.w3.org/2000/svg">
<path d="M54.6275 53.9774C54.7475 54.8174 54.1675 55.5974 53.3275 55.7174C52.4875 55.8374 51.7075 55.2574 51.5875 54.4174C50.6375 47.8274 45.0175 43.4074 37.6075 43.4074C30.1975 43.4074 24.4075 47.8174 23.5975 54.3874C23.4975 55.2274 22.7375 55.8274 21.8875 55.7274C21.0475 55.6274 20.4475 54.8674 20.5475 54.0174V54.0074C21.5675 45.8274 28.4175 40.3374 37.6075 40.3374C46.4675 40.3374 53.4675 45.9474 54.6275 53.9774ZM27.9175 27.6374C27.9175 22.4374 32.1275 18.2274 37.3275 18.2274C42.5275 18.2274 46.7375 22.4374 46.7375 27.6374C46.7375 32.8374 42.5275 37.0474 37.3275 37.0474C32.1375 37.0474 27.9275 32.8274 27.9175 27.6374ZM30.9875 27.6374C30.9875 31.1374 33.8275 33.9774 37.3275 33.9774C40.8275 33.9774 43.6675 31.1374 43.6675 27.6374C43.6675 24.1374 40.8275 21.2974 37.3275 21.2974C33.8275 21.2974 30.9875 24.1374 30.9875 27.6374ZM64.8875 63.4874L41.0575 90.0074H58.5075C59.3575 90.0074 60.0375 90.6974 60.0375 91.5374C60.0375 92.3774 59.3475 93.0674 58.5075 93.0674H16.1575C15.3075 93.0674 14.6275 92.3774 14.6275 91.5374C14.6275 90.6974 15.3175 90.0074 16.1575 90.0074H34.1675L10.3375 63.4874C0.557501 52.6374 -2.0825 37.1174 3.5775 23.6574C9.0775 10.2974 20.8375 1.83737 35.0475 1.00737C36.7575 0.907373 38.4675 0.907373 40.1775 1.00737C54.3875 1.82737 66.1475 10.2974 71.6475 23.6574C77.3075 37.1174 74.6775 52.6374 64.8875 63.4874ZM62.5975 61.4274C71.5875 51.4574 74.0075 37.1974 68.7975 24.8174C64.1175 12.8374 52.8375 4.70737 39.9875 4.06737C39.1975 4.01737 38.3975 3.99737 37.5975 3.99737C36.7975 3.99737 35.9975 4.01737 35.2075 4.06737C22.3575 4.70737 11.0875 12.8374 6.4075 24.8174C1.1975 37.1874 3.6175 51.4574 12.6075 61.4274L37.5975 89.2374L62.5875 61.4274H62.5975ZM66.1875 38.9274C66.1875 54.7074 53.3975 67.5074 37.6075 67.5074C21.8275 67.5074 9.0275 54.7174 9.0275 38.9274C9.0275 23.1374 21.8175 10.3474 37.6075 10.3474C53.3875 10.3674 66.1675 23.1474 66.1875 38.9274ZM63.1175 38.9274C63.1175 24.8374 51.6975 13.4174 37.6075 13.4174C23.5175 13.4174 12.0975 24.8374 12.0975 38.9274C12.0975 53.0174 23.5175 64.4374 37.6075 64.4374C51.6875 64.4174 63.0975 53.0074 63.1175 38.9274Z" fill="white"/>
</svg>
